<svg xmlns="http://www.w3.org/2000/svg" width="31.97" height="28.969" viewBox="0 0 31.97 28.969">
  <defs>
    <style>
      .cls-1 {
        fill: #fff;
        fill-rule: evenodd;
      }
    </style>
  </defs>
  <path id="addition-icon" class="cls-1" d="M1228.74,823.48l2.66-2.65,2.65,2.65a1.019,1.019,0,0,0,1.44-1.442l-2.65-2.649,2.65-2.65a1.019,1.019,0,0,0-1.44-1.441l-2.65,2.649-2.66-2.649a1.019,1.019,0,0,0-1.44,1.441l2.65,2.65-2.65,2.649A1.019,1.019,0,1,0,1228.74,823.48Zm20.25,12.039a1.018,1.018,0,0,0-1.44,0l-2.66,2.649-2.65-2.649a1.019,1.019,0,0,0-1.44,1.441l2.65,2.65-2.65,2.649a1.019,1.019,0,1,0,1.44,1.442l2.65-2.649,2.66,2.649a1.019,1.019,0,0,0,1.44-1.442l-2.65-2.649,2.65-2.65A1.015,1.015,0,0,0,1248.99,835.519Zm0.08-14.294-4.12-3.573a1.017,1.017,0,1,0-1.33,1.538l2.18,1.895a17.819,17.819,0,0,0-12.38,7.047,19.487,19.487,0,0,0-3.13,6.348,4.665,4.665,0,0,1,.62-0.043,4.617,4.617,0,0,1,1.45.23,17.772,17.772,0,0,1,2.74-5.383,15.689,15.689,0,0,1,10.99-6.184l-2.04,2.336a1.02,1.02,0,0,0,.77,1.689,1.007,1.007,0,0,0,.77-0.351l3.58-4.111A1.014,1.014,0,0,0,1249.07,821.225Zm-18.16,14.891a3.013,3.013,0,1,0,3.02,3.012A3.015,3.015,0,0,0,1230.91,836.116Zm25.07-17.332A3.012,3.012,0,1,0,1259,821.8,3.014,3.014,0,0,0,1255.98,818.784Z" transform="translate(-1227.03 -815.031)"/>
</svg>
