<svg xmlns="http://www.w3.org/2000/svg" xmlns:xlink="http://www.w3.org/1999/xlink" width="32" height="32" viewBox="0 0 32 32">
  <defs>
    <style>
      .cls-1 {
        fill: #fff;
        fill-rule: evenodd;
        filter: url(#filter);
      }
    </style>
    <filter id="filter" x="1445" y="1364" width="32" height="32" filterUnits="userSpaceOnUse">
      <feFlood result="flood" flood-color="#900000"/>
      <feComposite result="composite" operator="in" in2="SourceGraphic"/>
      <feBlend result="blend" in2="SourceGraphic"/>
    </filter>
  </defs>
  <path id="Icon" class="cls-1" d="M1457.37,1366h-4.5a0.625,0.625,0,0,0,0,1.25h4.5A0.625,0.625,0,1,0,1457.37,1366Zm-1.81,26.54a0.628,0.628,0,0,0-.44-0.18,0.666,0.666,0,0,0-.44.18,0.62,0.62,0,0,0-.18.44,0.627,0.627,0,0,0,.18.45,0.666,0.666,0,0,0,.44.18,0.628,0.628,0,0,0,.44-0.18A0.616,0.616,0,0,0,1455.56,1392.54Zm17.42-8.67-2.3-3.99a2.816,2.816,0,0,0,.52-3.47,2.817,2.817,0,0,0-3.27-1.28l-2.3-3.99a0.621,0.621,0,0,0-1.03-.07l-7.16,9.14-3,1.74a3.593,3.593,0,0,0-1.31,4.9,3.527,3.527,0,0,0,2.18,1.67,3.264,3.264,0,0,0,.93.13,3.571,3.571,0,0,0,1.79-.49l0.36-.2,1.24,2.16h-13.38v-20.87H1464v0.19a0.625,0.625,0,0,0,1.25,0v-2.99a2.456,2.456,0,0,0-2.46-2.45h-15.34a2.454,2.454,0,0,0-2.45,2.45v27.1a2.454,2.454,0,0,0,2.45,2.45h15.34a2.456,2.456,0,0,0,2.46-2.45v-7.72l7.27-1.03A0.627,0.627,0,0,0,1472.98,1383.87Zm-26.73-17.42a1.2,1.2,0,0,1,1.2-1.2h15.34a1.206,1.206,0,0,1,1.21,1.2V1368h-17.75v-1.55Zm22.92,9.85a1.568,1.568,0,0,1,.85,2.45l-1.43-2.49A1.626,1.626,0,0,1,1469.17,1376.3Zm-11.77,10.78a2.333,2.333,0,0,1-1.77.24,2.344,2.344,0,0,1-.57-4.29l2.57-1.48,2.34,4.05Zm2.07,0.25,1.13-.65,1.47,2.56-1.13.65Zm4.53,6.22a1.206,1.206,0,0,1-1.21,1.2h-15.34a1.2,1.2,0,0,1-1.2-1.2v-2.18H1464v2.18h0Zm0-3.43h-0.95l0.19-.11a0.621,0.621,0,0,0,.23-0.85l-1.64-2.84,2.17-.31v4.11Zm-2.84-4.97-2.55-4.4,4.55-5.81,5.29,9.17Zm8.63-1.23-5.8-10.04,1.02-1.31,6.42,11.12Zm7.13-10.79a0.636,0.636,0,0,0-.86-0.23l-3.06,1.77a0.636,0.636,0,0,0-.23.86,0.609,0.609,0,0,0,.54.31,0.681,0.681,0,0,0,.31-0.08l3.07-1.77A0.636,0.636,0,0,0,1476.92,1373.13Zm-5.66-2.74a0.633,0.633,0,0,0-.77.44l-0.44,1.67a0.622,0.622,0,0,0,.44.76,0.44,0.44,0,0,0,.16.02,0.61,0.61,0,0,0,.6-0.46l0.45-1.67A0.622,0.622,0,0,0,1471.26,1370.39Zm4.77,8.17-1.72-.46a0.633,0.633,0,0,0-.77.44,0.626,0.626,0,0,0,.45.77l1.72,0.46a0.44,0.44,0,0,0,.16.02,0.61,0.61,0,0,0,.6-0.46A0.625,0.625,0,0,0,1476.03,1378.56Zm-19.18-7.49h-8.62a0.625,0.625,0,1,0,0,1.25h8.62A0.625,0.625,0,1,0,1456.85,1371.07Zm0.44,3.19a0.6,0.6,0,0,0-.44-0.19,0.631,0.631,0,0,0-.44.19,0.588,0.588,0,0,0-.18.44,0.615,0.615,0,0,0,.62.62,0.588,0.588,0,0,0,.44-0.18,0.631,0.631,0,0,0,.19-0.44A0.6,0.6,0,0,0,1457.29,1374.26Zm-3.02-.19h-6.04a0.625,0.625,0,1,0,0,1.25h6.04A0.625,0.625,0,0,0,1454.27,1374.07Zm1.1,3h-4.74a0.625,0.625,0,1,0,0,1.25h4.74A0.625,0.625,0,0,0,1455.37,1377.07Zm-7.12,0h-0.03a0.625,0.625,0,0,0,0,1.25h0.03A0.625,0.625,0,1,0,1448.25,1377.07Z" transform="translate(-1445 -1364)"/>
</svg>
