<svg xmlns="http://www.w3.org/2000/svg" xmlns:xlink="http://www.w3.org/1999/xlink" width="41" height="32" viewBox="0 0 41 32">
  <defs>
    <style>
      .cls-1 {
        fill: #fff;
        fill-rule: evenodd;
        filter: url(#filter);
      }
    </style>
    <filter id="filter" x="1243" y="1364" width="41" height="32" filterUnits="userSpaceOnUse">
      <feFlood result="flood" flood-color="#900000"/>
      <feComposite result="composite" operator="in" in2="SourceGraphic"/>
      <feBlend result="blend" in2="SourceGraphic"/>
    </filter>
  </defs>
  <path id="Icon" class="cls-1" d="M1268.56,1364.43l-1.39-.39a0.566,0.566,0,0,0-.52.05,0.811,0.811,0,0,0-.35.46l-8.36,30.08a0.729,0.729,0,0,0,.06.58,0.792,0.792,0,0,0,.44.36l1.39,0.39a0.541,0.541,0,0,0,.52-0.06,0.759,0.759,0,0,0,.35-0.45l8.36-30.09a0.752,0.752,0,0,0-.06-0.57A0.719,0.719,0,0,0,1268.56,1364.43Zm-12.52,5.88a0.732,0.732,0,0,0-.22-0.54l-1.12-1.17a0.692,0.692,0,0,0-1.03,0l-10.44,10.86a0.749,0.749,0,0,0,0,1.08l10.44,10.86a0.692,0.692,0,0,0,1.03,0l1.12-1.17a0.76,0.76,0,0,0,0-1.07l-8.81-9.16,8.81-9.16A0.725,0.725,0,0,0,1256.04,1370.31Zm27.73,9.15-10.44-10.86a0.692,0.692,0,0,0-1.03,0l-1.12,1.17a0.76,0.76,0,0,0,0,1.07l8.81,9.16-8.81,9.16a0.76,0.76,0,0,0,0,1.07l1.12,1.17a0.692,0.692,0,0,0,1.03,0l10.44-10.86A0.749,0.749,0,0,0,1283.77,1379.46Z" transform="translate(-1243 -1364)"/>
</svg>
