<svg xmlns="http://www.w3.org/2000/svg" width="11.344" height="13.31" viewBox="0 0 11.344 13.31">
  <defs>
    <style>
      .cls-1 {
        fill: #fff;
        fill-rule: evenodd;
      }
    </style>
  </defs>
  <path id="Icon" class="cls-1" d="M553.842,1248.35h2.54v9.15h-2.54v-9.15Zm9.457,0.1a0.23,0.23,0,0,0-.08-0.02l-0.1-.03a2.065,2.065,0,0,0-.456-0.05,3.465,3.465,0,0,0-2.729,1.75v-1.75h-2.54v9.15h2.54v-4.99s1.919-3.14,2.729-.83v5.82H565.2v-6.18A2.932,2.932,0,0,0,563.3,1248.45Zm-8.215-4.27a1.479,1.479,0,1,1-1.242,1.46A1.368,1.368,0,0,1,555.084,1244.18Z" transform="translate(-553.844 -1244.19)"/>
</svg>
