<svg xmlns="http://www.w3.org/2000/svg" width="36" height="44" viewBox="0 0 36 44">
  <defs>
    <style>
      .cls-1 {
        fill: #fff;
        fill-rule: evenodd;
      }
    </style>
  </defs>
  <path id="pdf-icon" class="cls-1" d="M1449.92,1364.31a1.192,1.192,0,0,0-1.41-1.17,3.436,3.436,0,0,0-.75.07v2.35a3.3,3.3,0,0,0,.61.04A1.328,1.328,0,0,0,1449.92,1364.31Zm5.56-1.14a3.586,3.586,0,0,0-.82.07v5.19a4.027,4.027,0,0,0,.63.03,2.457,2.457,0,0,0,2.7-2.77A2.283,2.283,0,0,0,1455.48,1363.17Zm10.34-27.17h-17.76a4.7,4.7,0,0,0-4.7,4.68V1358h-0.46a1.891,1.891,0,0,0-1.9,1.89v11.44a1.9,1.9,0,0,0,1.9,1.89h0.46v2.1a4.7,4.7,0,0,0,4.7,4.68h24.23a4.7,4.7,0,0,0,4.71-4.68v-28.24Zm-19.85,25.95a15.526,15.526,0,0,1,2.44-.16,3.874,3.874,0,0,1,2.44.63,2.312,2.312,0,0,1,.85,1.84,2.514,2.514,0,0,1-.73,1.88,3.709,3.709,0,0,1-2.59.84,5.464,5.464,0,0,1-.62-0.03v2.83h-1.79v-7.83Zm26.32,15.18h-24.23a1.818,1.818,0,0,1-1.82-1.81v-2.1h22.59a1.9,1.9,0,0,0,1.9-1.89v-11.44a1.891,1.891,0,0,0-1.9-1.89h-22.59v-17.32a1.818,1.818,0,0,1,1.82-1.81l16.68-.02v6.14a3.267,3.267,0,0,0,3.27,3.25l6.04-.02,0.07,27.1A1.82,1.82,0,0,1,1472.29,1377.13Zm-19.44-7.38v-7.8a17.191,17.191,0,0,1,2.44-.16,5.2,5.2,0,0,1,3.27.84,3.517,3.517,0,0,1,1.35,3,4.007,4.007,0,0,1-1.33,3.21,5.718,5.718,0,0,1-3.68,1.03A15.518,15.518,0,0,1,1452.85,1369.75Zm12.92-4.62v1.46h-2.86v3.19h-1.81v-7.93h4.87v1.47h-3.06v1.81h2.86Z" transform="translate(-1441 -1336)"/>
</svg>
