<svg id="process-a-icon-4" xmlns="http://www.w3.org/2000/svg" width="93" height="91" viewBox="0 0 93 91">
  <defs>
    <style>
      .cls-1 {
        fill: #fff;
      }

      .cls-2, .cls-4 {
        fill: #0d0925;
      }

      .cls-2 {
        fill-rule: evenodd;
      }

      .cls-3 {
        fill: #e7b03c;
        stroke: #0d0925;
        stroke-linejoin: round;
        stroke-width: 2px;
      }

      .cls-4 {
        font-size: 11px;
        text-anchor: middle;
        font-family: Nunito;
        font-weight: 700;
      }
    </style>
  </defs>
  <g id="Icon">
    <rect id="Rectangle" class="cls-1" width="91" height="91" rx="45.5" ry="45.5"/>
    <path id="Icon-2" data-name="Icon" class="cls-2" d="M1426,1737h-3.98a1,1,0,0,0-1,1v0.99h-8.2a2.993,2.993,0,0,0-5.64,0h-8.2V1738a1,1,0,0,0-1-1H1394a1,1,0,0,0-1,1v3.98a1,1,0,0,0,1,1h3.98a1,1,0,0,0,1-1v-1.01h4.14a13.092,13.092,0,0,0-6.04,10.2,2.993,2.993,0,1,0,1.99.02,11.148,11.148,0,0,1,8.25-9.88,2.985,2.985,0,0,0,5.36,0,11.148,11.148,0,0,1,8.25,9.88,2.987,2.987,0,1,0,1.99-.02,13.058,13.058,0,0,0-6.04-10.19h4.14v1a1,1,0,0,0,1,1H1426a1,1,0,0,0,1-1V1738A1,1,0,0,0,1426,1737Zm-29.02,3.98h-1.99v-1.99h1.99v1.99Zm1.07,14.02a1,1,0,1,1,.99-1A1,1,0,0,1,1398.05,1755Zm11.95-14.02a1,1,0,1,1,1-.99A0.994,0.994,0,0,1,1410,1740.98Zm11.95,12.02a1,1,0,1,1-.99,1A1,1,0,0,1,1421.95,1753Zm3.06-12.02h-1.99v-1.99h1.99v1.99Zm-6.21,16.45-7.97-11.95h0c0-.01-0.01-0.01-0.01-0.02s-0.03-.03-0.04-0.05a1,1,0,0,0-1.6.05c0,0.01-.01.01-0.01,0.02h0l-7.97,11.95a1,1,0,0,0,.13,1.26,12.621,12.621,0,0,1,3.59,7.36,5.625,5.625,0,0,0-.44.41,5,5,0,0,0-1.45,3.54,0.994,0.994,0,0,0,.99,1h11.96a0.994,0.994,0,0,0,.99-1,5,5,0,0,0-1.45-3.54,5.625,5.625,0,0,0-.44-0.41,12.621,12.621,0,0,1,3.59-7.36A1,1,0,0,0,1418.8,1757.43Zm-8.8-.44a1,1,0,1,1-1,.99A0.994,0.994,0,0,1,1410,1756.99Zm-4.81,12.02a3.034,3.034,0,0,1,2.82-2.06h3.98a3.034,3.034,0,0,1,2.82,2.06h-9.62Zm8.01-3.9a4.833,4.833,0,0,0-1.21-.15h-3.98a4.833,4.833,0,0,0-1.21.15,14.6,14.6,0,0,0-3.5-7.23l5.7-8.56v5.85a2.99,2.99,0,1,0,2,0v-5.85l5.7,8.56A14.6,14.6,0,0,0,1413.2,1765.11Z" transform="translate(-1364 -1708)"/>
  </g>
  <g id="_04" data-name="04">
    <circle id="Ellipse" class="cls-3" cx="78" cy="15" r="12"/>
    <text id="_04-2" data-name="04" class="cls-4" x="77.699" y="18.731">04</text>
  </g>
</svg>
