<svg id="process-a-icon-2" xmlns="http://www.w3.org/2000/svg" width="93" height="91" viewBox="0 0 93 91">
  <defs>
    <style>
      .cls-1 {
        fill: #fff;
      }

      .cls-2, .cls-4 {
        fill: #0d0925;
      }

      .cls-2 {
        fill-rule: evenodd;
      }

      .cls-3 {
        fill: #e7b03c;
        stroke: #0d0925;
        stroke-linejoin: round;
        stroke-width: 2px;
      }

      .cls-4 {
        font-size: 11px;
        text-anchor: middle;
        font-family: Nunito;
        font-weight: 700;
      }
    </style>
  </defs>
  <g id="Icon">
    <rect id="Rectangle" class="cls-1" width="91" height="91" rx="45.5" ry="45.5"/>
    <path id="Icon-2" data-name="Icon" class="cls-2" d="M825.811,1743.05l-5.865-5.86a0.65,0.65,0,0,0-.456-0.19H800.347a1.936,1.936,0,0,0-1.933,1.93v1.23a8.528,8.528,0,0,0-5.414,7.93,0.646,0.646,0,0,0,.644.65h7.87a0.647,0.647,0,0,0,.644-0.65v-7.87a0.645,0.645,0,0,0-.644-0.64,8.986,8.986,0,0,0-1.811.19v-0.84a0.645,0.645,0,0,1,.644-0.64h18.5v3.93a1.93,1.93,0,0,0,1.933,1.93h3.932v23.92a0.645,0.645,0,0,1-.645.64H800.347a0.645,0.645,0,0,1-.644-0.64v-5.53a0.645,0.645,0,0,0-1.289,0v5.53a1.936,1.936,0,0,0,1.933,1.93h23.719a1.937,1.937,0,0,0,1.934-1.93v-24.56A0.654,0.654,0,0,0,825.811,1743.05Zm-24.942-2.16v6.56h-6.552A7.248,7.248,0,0,1,800.869,1740.89Zm19.91,1.97a0.638,0.638,0,0,1-.644-0.64v-3.02l3.665,3.66h-3.021Zm-21.265,16.89a0.641,0.641,0,0,0-.911,0,0.635,0.635,0,0,0-.189.45,0.659,0.659,0,0,0,.189.46,0.641,0.641,0,0,0,.911,0,0.659,0.659,0,0,0,.189-0.46A0.635,0.635,0,0,0,799.514,1759.75Zm4.308-17.86a0.638,0.638,0,0,0-.644.64v7.23h-7.225a0.638,0.638,0,0,0-.644.64A8.514,8.514,0,1,0,803.822,1741.89Zm0.645,1.31a7.247,7.247,0,0,1,3.985,1.66l-3.985,3.98v-5.64Zm-0.645,14.42a7.229,7.229,0,0,1-7.2-6.58h7.2a0.665,0.665,0,0,0,.456-0.18h0l5.086-5.09A7.217,7.217,0,0,1,803.822,1757.62Zm17.413-.28a1.936,1.936,0,0,0-1.781,2.69l-3.713,3.71a1.982,1.982,0,0,0-.844-0.19,1.9,1.9,0,0,0-.826.18l-2.466-2.46a1.934,1.934,0,1,0-3.734-.71,1.9,1.9,0,0,0,.178.81l-2.365,2.37a1.934,1.934,0,1,0,1.1,1.74,1.882,1.882,0,0,0-.19-0.83l2.352-2.35a2.036,2.036,0,0,0,.856.2,1.936,1.936,0,0,0,.955-0.26l2.4,2.4a1.933,1.933,0,1,0,3.675.84,1.938,1.938,0,0,0-.184-0.82l3.678-3.68a1.872,1.872,0,0,0,.91.23A1.935,1.935,0,0,0,821.235,1757.34Zm-16.382,8.79a0.645,0.645,0,1,1,.446-1.11,0.061,0.061,0,0,1,.007.01s0.007,0,.01.01a0.621,0.621,0,0,1,.182.44A0.648,0.648,0,0,1,804.853,1766.13Zm4.952-4.92a0.645,0.645,0,1,1,.644-0.65A0.647,0.647,0,0,1,809.805,1761.21Zm5.092,4.92a0.645,0.645,0,1,1,.644-0.65A0.647,0.647,0,0,1,814.9,1766.13Zm6.338-6.21a0.645,0.645,0,1,1,.644-0.65A0.647,0.647,0,0,1,821.235,1759.92Zm-3.222-7.77h-3.4a0.64,0.64,0,1,0,0,1.28h3.4A0.64,0.64,0,1,0,818.013,1752.15Zm3.391,0.18a0.688,0.688,0,0,0-.456-0.18,0.642,0.642,0,0,0-.456.18,0.654,0.654,0,0,0,0,.92,0.668,0.668,0,0,0,.912,0A0.654,0.654,0,0,0,821.4,1752.33Zm1.081-6.37h-7.873a0.645,0.645,0,1,0,0,1.29h7.873A0.645,0.645,0,0,0,822.485,1745.96Zm0,3.09h-7.873a0.645,0.645,0,1,0,0,1.29h7.873A0.645,0.645,0,0,0,822.485,1749.05Z" transform="translate(-764 -1708)"/>
  </g>
  <g id="_02" data-name="02">
    <circle id="Ellipse" class="cls-3" cx="78" cy="15" r="12"/>
    <text id="_02-2" data-name="02" class="cls-4" x="77.699" y="18.731">02</text>
  </g>
</svg>
